<?xml version="1.0" encoding="utf-8"?>
<!-- Generator: Adobe Illustrator 27.0.0, SVG Export Plug-In . SVG Version: 6.00 Build 0)  -->
<svg version="1.1" id="Layer_1" xmlns="http://www.w3.org/2000/svg" xmlns:xlink="http://www.w3.org/1999/xlink" x="0px" y="0px"
	 viewBox="0 0 228 94" style="enable-background:new 0 0 228 94;" xml:space="preserve">
<style type="text/css">
	.st0{fill:#231F20;}
	.st1{fill:#009D47;}
	.st2{fill:#005D2B;}
	.st3{fill:#DA521F;}
	.st4{font-family:'AquireRegular';}
	.st5{font-size:38.0107px;}
	.st6{letter-spacing:-4;}
	.st7{letter-spacing:-1;}
	.st8{fill:#A23B0F;}
	.st9{font-size:12.9106px;}
</style>
<g>
	<g>
		<g>
			<g>
				<path class="st0" d="M256.9,89h9c2.6,0,4.7,0.8,6,2.1c1,1,1.6,2.4,1.6,4v0.1c0,3.6-2.7,5.6-6.3,6.1l7.1,9.1h-2l-6.8-8.9h-7v8.9
					h-1.6L256.9,89L256.9,89z M265.7,100.1c3.6,0,6.2-1.8,6.2-4.9v-0.1c0-2.9-2.3-4.7-6.1-4.7h-7.3v9.6
					C258.5,100.1,265.7,100.1,265.7,100.1z"/>
				<path class="st0" d="M323.6,89h1.6v19.9h12.5v1.5h-14.1V89z"/>
				<path class="st0" d="M351.7,89h15.2v1.5h-13.6v8.4h13.6v1.5h-13.6v8.6h13.6v1.5h-15.2V89z"/>
				<path class="st0" d="M279,89h15.2v1.5h-13.6v8.4h13.6v1.5h-13.6v8.6h13.6v1.5H279V89z"/>
				<path class="st0" d="M370.8,107.3l1-1.2c2.4,2.2,4.5,3.2,7.7,3.2c3.2,0,5.4-1.8,5.4-4.2V105c0-2.3-1.2-3.6-6.1-4.6
					c-5.1-1-7.2-2.8-7.2-6v-0.1c0-3.2,2.9-5.6,6.9-5.6c3.1,0,5.2,0.9,7.3,2.6l-1,1.2c-2-1.7-4-2.4-6.4-2.4c-3.1,0-5.2,1.8-5.2,4v0.1
					c0,2.3,1.2,3.6,6.2,4.7c4.9,1,7,2.8,7,5.9v0.1c0,3.4-3,5.8-7.1,5.8C376,110.7,373.3,109.6,370.8,107.3z"/>
				<path class="st0" d="M397.2,90.5h-7.5V89h16.5v1.5h-7.5v19.9h-1.6V90.5L397.2,90.5z"/>
				<path class="st0" d="M416.4,88.9h1.5l10,21.5h-1.7l-2.7-6h-12.6l-2.7,6h-1.6L416.4,88.9z M422.8,103l-5.6-12.4l-5.6,12.4H422.8z
					"/>
				<path class="st0" d="M308.6,88.9h1.5l10,21.5h-1.7l-2.7-6H303l-2.7,6h-1.7L308.6,88.9z M314.9,103l-5.6-12.4l-5.6,12.4
					C303.6,103,314.9,103,314.9,103z"/>
				<path class="st0" d="M435.6,90.5h-7.4V89h16.5v1.5h-7.5v19.9h-1.6V90.5z"/>
				<path class="st0" d="M449.5,89h15.2v1.5h-13.6v8.4h13.6v1.5h-13.6v8.6h13.6v1.5h-15.2V89z"/>
			</g>
		</g>
	</g>
	<path class="st0" d="M256.9,76.7V24.9c0-2.8,2.2-5,5-5h27.4v12H270v12h16.8v11.3H270v14.6h19.4v12H262
		C259.2,81.7,256.9,79.4,256.9,76.7z"/>
	<path class="st0" d="M318.3,19.9h-23.7v61.8h23.7c6.1,0,11-4.9,11-11V31C329.3,24.9,324.4,19.9,318.3,19.9z M312.5,69.7h-5.2V31.9
		h5.2c2.2,0,4,1.8,4,4v29.8C316.6,67.9,314.8,69.7,312.5,69.7z"/>
	<path class="st0" d="M370.3,41.9c-1.5-1.1-2.5-2.9-2.5-4.9v-1.7c0-1.9,1.6-3.5,3.5-3.5h0.1c1.9,0,3.5,1.6,3.5,3.5c0,1.5,0,3,0,3
		h12.9V31c0-6.2-5.1-11.3-11.3-11.3l0,0h-8.6h-1.2c-6.2,0-11.3,5.1-11.3,11.3v9.4c0,4.4,2.2,8.6,5.9,11.1l9.7,6.5
		c2.2,1.4,4.1,2.9,4.1,4.8c0,0.4,0,2.6,0,3.5c0,1.9-1.5,3.5-3.5,3.5l0,0c-1.9,0-3.5-1.5-3.5-3.5v-5h-12.8v9
		c0,6.2,5.1,11.3,11.3,11.3h1.9h6.5h1.5c6.2,0,11.3-5.1,11.3-11.3v-9.1c0-4.8-2.4-9.3-6.4-12L370.3,41.9z"/>
	<path class="st0" d="M467.4,20.8v-1.1h-15v27.5l-7.5-27.5h-12.9v61.8h12.9V54l7.9,27.7h7.1c3,0,5.4-2.4,5.4-5.4V22.9
		C465.3,21.8,466.3,20.8,467.4,20.8L467.4,20.8z"/>
	<path class="st0" d="M426.9,65.6V36c0-8.9-7.2-16-16.1-16H409c-8.9,0-16.1,7.2-16.1,16v29.7c0,8.9,7.2,16,16.1,16h1.8
		C419.7,81.7,426.9,74.5,426.9,65.6z M405.7,65.6V36.1c0-2.3,1.9-4.2,4.2-4.2l0,0c2.3,0,4.2,1.9,4.2,4.2v29.5c0,2.3-1.9,4.2-4.2,4.2
		l0,0C407.6,69.7,405.7,67.9,405.7,65.6z"/>
	<g>
		<polygon class="st0" points="334.5,19.9 334.5,37.9 350.1,25.8 350.1,19.9 		"/>
		<polygon class="st0" points="334.5,45.2 334.5,81.7 350.1,81.7 350.1,32.9 		"/>
	</g>
</g>
<g>
	<g>
		<path class="st1" d="M23.8,37.8c-6.1-4.1-12-3-18,0.2c0.1-0.2,3.7-6.5,9.6-6.2c0.3,0,0.6,0.1,0.8,0.1
			C19.1,32.7,21.5,34.9,23.8,37.8"/>
		<path class="st2" d="M38.1,30c-8.5-5.6-16.7-4.1-25,0.2c0.1-0.2,5.2-9.1,13.4-8.6c0.4,0,0.8,0.1,1.2,0.2
			C31.6,22.9,35,25.9,38.1,30"/>
		<path class="st3" d="M49.5,39.7c-1.3-1.4-2.8-2.5-4.3-3.3c-4.4-2.3-9.1-2.8-13.8-3.1c-2.8-0.2-3.7-1.1-4.4-5h-5
			c0,0.2-0.1,0.3-0.1,0.4c0,0.2,0,0.3,0.1,0.5c0.3,1.8,1.3,2.8,2.3,3.6c2,1.4,4.2,1.8,6.4,2.1c2.4,0.3,4.8,0.5,7.1,1.1
			c2.3,0.5,4.6,1.6,6.4,3.9c1.8,2.3,2,4.8,0.3,7.3c-0.9,1.3-2,2.5-3.2,3.3c-3.8,2.5-8,3-12.1,3.4c-0.1,0-0.2,0-0.2,0V41.7
			c1.2,0.1,2.4,0.2,3.5,0.5l2.1-2.1c-0.9-0.6-3-1-5.6-1.2v-2.3l-3.5-1.4H23v3.7c-7.3,0.5-15.4,2.5-16.5,6.8
			C3.8,55.8,21.4,57.5,23,57.6v0H29c1.1-0.1,2.1-0.1,3.2-0.3c4.2-0.5,8.3-1.3,12.2-3.5c2.2-1.2,4.2-2.7,5.7-5.3
			C52,45.5,51.8,42.1,49.5,39.7 M13.6,44.6c1.9-1.6,5.5-2.6,9.4-2.9v12.2C11.9,52.8,9.8,47.9,13.6,44.6"/>
	</g>
	<text transform="matrix(1 0 0 1 54.4537 57.099)"><tspan x="0" y="0" class="st2 st4 st5 st6">D</tspan><tspan x="22.2" y="0" class="st2 st4 st5">A</tspan><tspan x="54" y="0" class="st2 st4 st5">KHI</tspan><tspan x="113.1" y="0" class="st2 st4 st5 st7">N</tspan><tspan x="135.2" y="0" class="st2 st4 st5">A</tspan></text>
	<g>
		<text transform="matrix(1 0 0 1 55.4249 72.3651)" class="st8 st4 st9">Real Estate Pvt. Ltd</text>
	</g>
</g>
</svg>
