<?xml version="1.0" encoding="utf-8"?>
<!-- Generator: Adobe Illustrator 27.0.0, SVG Export Plug-In . SVG Version: 6.00 Build 0)  -->
<svg version="1.1" id="Layer_1" xmlns="http://www.w3.org/2000/svg" xmlns:xlink="http://www.w3.org/1999/xlink" x="0px" y="0px"
	 viewBox="0 0 228 94" style="enable-background:new 0 0 228 94;" xml:space="preserve">
<style type="text/css">
	.st0{fill:#009D47;}
	.st1{fill:#005D2B;}
	.st2{fill:#DA521F;}
	.st3{enable-background:new    ;}
	.st4{fill:#A23B0F;}
</style>
<g>
	<path class="st0" d="M23.8,37.8c-6.1-4.1-12-3-18,0.2c0.1-0.2,3.7-6.5,9.6-6.2c0.3,0,0.6,0.1,0.8,0.1
		C19.1,32.7,21.5,34.9,23.8,37.8"/>
	<path class="st1" d="M38.1,30c-8.5-5.6-16.7-4.1-25,0.2c0.1-0.2,5.2-9.1,13.4-8.6c0.4,0,0.8,0.1,1.2,0.2C31.6,22.9,35,25.9,38.1,30
		"/>
	<path class="st2" d="M49.5,39.7c-1.3-1.4-2.8-2.5-4.3-3.3c-4.4-2.3-9.1-2.8-13.8-3.1c-2.8-0.2-3.7-1.1-4.4-5h-5
		c0,0.2-0.1,0.3-0.1,0.4c0,0.2,0,0.3,0.1,0.5c0.3,1.8,1.3,2.8,2.3,3.6c2,1.4,4.2,1.8,6.4,2.1c2.4,0.3,4.8,0.5,7.1,1.1
		c2.3,0.5,4.6,1.6,6.4,3.9c1.8,2.3,2,4.8,0.3,7.3c-0.9,1.3-2,2.5-3.2,3.3c-3.8,2.5-8,3-12.1,3.4c-0.1,0-0.2,0-0.2,0V41.7
		c1.2,0.1,2.4,0.2,3.5,0.5l2.1-2.1c-0.9-0.6-3-1-5.6-1.2v-2.3l-3.5-1.4H23v3.7c-7.3,0.5-15.4,2.5-16.5,6.8
		C3.8,55.8,21.4,57.5,23,57.6l0,0h6c1.1-0.1,2.1-0.1,3.2-0.3c4.2-0.5,8.3-1.3,12.2-3.5c2.2-1.2,4.2-2.7,5.7-5.3
		C52,45.5,51.8,42.1,49.5,39.7 M13.6,44.6c1.9-1.6,5.5-2.6,9.4-2.9v12.2C11.9,52.8,9.8,47.9,13.6,44.6"/>
</g>
<g class="st3">
	<path class="st1" d="M79,44.5c0,0.6,0,1.3-0.1,1.9c-0.8,5.6-5.3,10-11,10.7H56.3V37.3h3.6v16.1h7.7c3.8-0.5,6.8-3.4,7.5-7.1
		c0.1-0.6,0.2-1.2,0.2-1.9c0-0.6-0.1-1.2-0.2-1.8c-0.4-2.2-1.7-4.1-3.4-5.4c-1.4-1.1-3.2-1.7-5-1.8H56.3v-3.7h10.2l0,0
		c6.3,0.1,11.5,4.8,12.4,10.9C79,43.3,79,43.9,79,44.5z"/>
</g>
<g class="st3">
	<path class="st1" d="M89.7,38.3l2.4,4.4l-8,14.5h-4.8L89.7,38.3z M107.4,57.1h-4.8l-9.2-16.6L91,36.2l2.4-4.3l0,0l2.4,4.3
		L107.4,57.1z"/>
</g>
<g class="st3">
	<path class="st1" d="M132.8,57.1h-5.2l-10-10l-3.7,3.7v6.3h-3.6v-7.9l3.6-3.6l0,0l3-3l10.8-10.8h5.1l-12.6,12.6L132.8,57.1z
		 M113.7,43.2l-3.5,3.5V31.9h3.6V43L113.7,43.2z"/>
	<path class="st1" d="M158.5,31.9v25.2h-3.6V45.4h-14.8v11.7h-3.6V31.9h3.6v9.9h14.8v-9.9H158.5z"/>
	<path class="st1" d="M162.1,57.1V31.8h3.6v25.3H162.1z M162.1,31.8v25.3h3.6V31.8H162.1z M165.7,31.9h-3.4V57h3.4V31.9z"/>
</g>
<g class="st3">
	<path class="st1" d="M189.4,31.8V57l-3.6-3.6L173,40.6l0,0l-3.6-3.6v-5.2l16.4,16.4V31.8H189.4z M169.4,39.5l3.6,3.6V57h-3.6V39.5z
		"/>
</g>
<g class="st3">
	<path class="st1" d="M202.7,38.3l2.4,4.4l-8,14.5h-4.8L202.7,38.3z M220.4,57.1h-4.8l-9.2-16.6l-2.4-4.3l2.4-4.3l0,0l2.4,4.3
		L220.4,57.1z"/>
</g>
<g>
	<g class="st3">
		<path class="st4" d="M64.5,72.6h-1.5l-2.6-4.3l-0.1-0.1l0,0c0,0,0,0-0.1,0l0,0h-0.1c-0.1,0-0.2,0-0.2,0s0,0-0.1,0l0,0h-0.1l0,0
			h-0.1h-0.1l0,0h-0.1l0,0h-0.1l0,0h-0.1h-1.7v4.3h-1.3v-9.1h7.6c0,0.1,0,0.2,0,0.3c0,0.3,0,0.7-0.1,1c-0.2,0.9-0.6,1.7-1.3,2.3
			c-0.1,0.1-0.1,0.1-0.2,0.2c0,0,0,0-0.1,0.1l0,0c0,0-0.1,0-0.1,0.1c0,0,0,0-0.1,0l0,0c-0.1,0-0.1,0.1-0.2,0.1c0,0,0,0-0.1,0.1l0,0
			c0,0,0,0-0.1,0l0,0l0,0l0.2,0.3L64.5,72.6z M61.4,66.1c0.4-0.4,0.7-0.8,0.8-1.3h-4.8v2.3h1.7c0.5,0,0.9-0.1,1.3-0.3
			C60.8,66.6,61.1,66.4,61.4,66.1z"/>
		<path class="st4" d="M73.3,63.6v1.3h-8.1v-1.3C65.2,63.6,73.3,63.6,73.3,63.6z M66.6,71.3h6.8v1.3h-8.1v-7.2h1.3V67h5.9v1.3h-5.9
			C66.6,68.3,66.6,71.3,66.6,71.3z"/>
		<path class="st4" d="M78.5,65.8l0.9,1.6l-2.9,5.3h-1.7L78.5,65.8z M84.8,72.6h-1.7l-3.3-6l-1-1.6l0.9-1.6l0,0l0.9,1.6L84.8,72.6z"
			/>
		<path class="st4" d="M93.2,71.3v1.3h-7.1v-9.1h1.3v7.9H93.2z"/>
		<path class="st4" d="M108.7,63.6v1.3h-8.1v-1.3C100.6,63.6,108.7,63.6,108.7,63.6z M102,71.3h6.8v1.3h-8.1v-7.2h1.3V67h5.9v1.3
			H102C102,68.3,102,71.3,102,71.3z"/>
		<path class="st4" d="M117.3,68.7c0.2,0.4,0.3,0.8,0.3,1.3c0,0.5-0.1,0.9-0.3,1.3c-0.5,0.8-1.3,1.3-2.3,1.3h-2.9
			c-1,0-1.8-0.5-2.3-1.3c-0.2-0.4-0.3-0.8-0.3-1.2h1.3c0,0.7,0.6,1.2,1.3,1.2h2.9c0.7,0,1.3-0.6,1.3-1.3c0-0.7-0.6-1.3-1.3-1.3h-2.9
			c-0.7,0-1.4-0.3-1.9-0.8c-0.2-0.2-0.3-0.3-0.4-0.5c-0.2-0.4-0.3-0.8-0.3-1.3s0.1-0.9,0.3-1.3c0.5-0.8,1.3-1.3,2.3-1.3h2.8
			c0,0,0,0,0.1,0c0,0,0,0,0.1,0c0.9,0,1.8,0.5,2.2,1.3l0,0c0.2,0.4,0.3,0.8,0.3,1.2h-1.3c0-0.7-0.6-1.2-1.3-1.2h-2.9
			c-0.7,0-1.3,0.6-1.3,1.3c0,0.7,0.5,1.2,1.2,1.3h0.1c0.1,0,0.2,0,0.2,0h2.6C116,67.4,116.8,67.9,117.3,68.7z"/>
		<path class="st4" d="M119,64.8v-1.3h8.2v1.3H119z M122.3,72.6v-7.2h1.3v7.2H122.3z"/>
		<path class="st4" d="M130,65.8l0.9,1.6l-2.9,5.3h-1.7L130,65.8z M136.3,72.6h-1.8l-3.3-6l-0.9-1.6l0.9-1.6l0,0l0.9,1.6L136.3,72.6
			z"/>
		<path class="st4" d="M134.4,64.8v-1.3h8.2v1.3H134.4z M137.8,72.6v-7.2h1.3v7.2H137.8z"/>
		<path class="st4" d="M152.1,63.6v1.3h-8.1v-1.3C144.1,63.6,152.1,63.6,152.1,63.6z M145.4,71.3h6.8v1.3h-8.1v-7.2h1.3V67h5.9v1.3
			h-5.9V71.3z"/>
		<path class="st4" d="M164.5,68.4L164.5,68.4h-3.8v4.3h-1.4v-9.1h5.1l0,0c1.3,0.1,2.3,1.1,2.3,2.4
			C166.7,67.2,165.7,68.3,164.5,68.4z M165.4,65.9c0-0.6-0.5-1.1-1.1-1.1h-0.1l0,0h-3.5V67h3.6C164.9,67,165.4,66.5,165.4,65.9z"/>
		<path class="st4" d="M171.8,68.7l-0.9,1.6l-3.8-6.8h1.7L171.8,68.7z M177.3,63.5l-4.2,7.6l-0.9,1.6l0,0l-0.9-1.6l0.9-1.6l3.3-6
			H177.3z"/>
		<path class="st4" d="M178.6,64.8v-1.3h8.2v1.3H178.6z M181.9,72.6v-7.2h1.3v7.2H181.9z"/>
		<path class="st4" d="M188,72.6v-1.3h1.9v1.3H188z"/>
		<path class="st4" d="M204.3,71.3v1.3h-7.1v-9.1h1.3v7.9H204.3z"/>
		<path class="st4" d="M202.7,64.8v-1.3h8.2v1.3H202.7z M206.1,72.6v-7.2h1.3v7.2H206.1z"/>
		<path class="st4" d="M220.4,68.1c0,0.2,0,0.5,0,0.7c-0.3,2-1.9,3.6-4,3.9h-4.2v-7.2h1.3v5.9h2.8c1.4-0.2,2.5-1.2,2.7-2.6
			c0-0.2,0.1-0.4,0.1-0.7c0-0.2,0-0.4-0.1-0.6c-0.2-0.8-0.6-1.5-1.2-2c-0.5-0.4-1.1-0.6-1.8-0.7h-3.8v-1.3h3.7l0,0
			c2.3,0,4.2,1.7,4.5,4C220.4,67.6,220.4,67.9,220.4,68.1z"/>
	</g>
</g>
</svg>
