<?xml version="1.0" encoding="utf-8"?>
<!-- Generator: Adobe Illustrator 27.0.0, SVG Export Plug-In . SVG Version: 6.00 Build 0)  -->
<svg version="1.1" id="Layer_1" xmlns="http://www.w3.org/2000/svg" xmlns:xlink="http://www.w3.org/1999/xlink" x="0px" y="0px"
	 viewBox="0 0 228 94" style="enable-background:new 0 0 228 94;" xml:space="preserve">
<style type="text/css">
	.st0{fill:#FFFFFF;}
	.st1{font-family:'AquireRegular';}
	.st2{font-size:38.0107px;}
	.st3{letter-spacing:-4;}
	.st4{letter-spacing:-1;}
	.st5{font-size:12.9106px;}
</style>
<g>
	<g>
		<path class="st0" d="M23.8,37.8c-6.1-4.1-12-3-18,0.2c0.1-0.2,3.7-6.5,9.6-6.2c0.3,0,0.6,0.1,0.8,0.1
			C19.1,32.7,21.5,34.9,23.8,37.8"/>
		<path class="st0" d="M38.1,30c-8.5-5.6-16.7-4.1-25,0.2c0.1-0.2,5.2-9.1,13.4-8.6c0.4,0,0.8,0.1,1.2,0.2
			C31.6,22.9,35,25.9,38.1,30"/>
		<path class="st0" d="M49.5,39.7c-1.3-1.4-2.8-2.5-4.3-3.3c-4.4-2.3-9.1-2.8-13.8-3.1c-2.8-0.2-3.7-1.1-4.4-5h-5
			c0,0.2-0.1,0.3-0.1,0.4c0,0.2,0,0.3,0.1,0.5c0.3,1.8,1.3,2.8,2.3,3.6c2,1.4,4.2,1.8,6.4,2.1c2.4,0.3,4.8,0.5,7.1,1.1
			c2.3,0.5,4.6,1.6,6.4,3.9c1.8,2.3,2,4.8,0.3,7.3c-0.9,1.3-2,2.5-3.2,3.3c-3.8,2.5-8,3-12.1,3.4c-0.1,0-0.2,0-0.2,0V41.7
			c1.2,0.1,2.4,0.2,3.5,0.5l2.1-2.1c-0.9-0.6-3-1-5.6-1.2v-2.3l-3.5-1.4H23v3.7c-7.3,0.5-15.4,2.5-16.5,6.8
			C3.8,55.8,21.4,57.5,23,57.6v0H29c1.1-0.1,2.1-0.1,3.2-0.3c4.2-0.5,8.3-1.3,12.2-3.5c2.2-1.2,4.2-2.7,5.7-5.3
			C52,45.5,51.8,42.1,49.5,39.7 M13.6,44.6c1.9-1.6,5.5-2.6,9.4-2.9v12.2C11.9,52.8,9.8,47.9,13.6,44.6"/>
	</g>
	<text transform="matrix(1 0 0 1 54.4537 57.099)"><tspan x="0" y="0" class="st0 st1 st2 st3">D</tspan><tspan x="22.2" y="0" class="st0 st1 st2">A</tspan><tspan x="54" y="0" class="st0 st1 st2">KHI</tspan><tspan x="113.1" y="0" class="st0 st1 st2 st4">N</tspan><tspan x="135.2" y="0" class="st0 st1 st2">A</tspan></text>
	<g>
		<text transform="matrix(1 0 0 1 55.4249 72.3651)" class="st0 st1 st5">Real Estate Pvt. Ltd</text>
	</g>
</g>
</svg>
