<?xml version="1.0" encoding="utf-8"?>
<!-- Generator: Adobe Illustrator 27.0.0, SVG Export Plug-In . SVG Version: 6.00 Build 0)  -->
<svg version="1.1" id="Layer_1" xmlns="http://www.w3.org/2000/svg" xmlns:xlink="http://www.w3.org/1999/xlink" x="0px" y="0px"
	 viewBox="0 0 228 94" style="enable-background:new 0 0 228 94;" xml:space="preserve">
<style type="text/css">
	.st0{fill:#FFFFFF;}
	.st1{enable-background:new    ;}
</style>
<g>
	<path class="st0" d="M24.7,37.4c-6.1-4.1-12-3-18,0.2c0.1-0.2,3.7-6.5,9.6-6.2c0.3,0,0.6,0.1,0.8,0.1C20,32.3,22.4,34.5,24.7,37.4"
		/>
	<path class="st0" d="M39,29.6c-8.5-5.6-16.7-4.1-25,0.2c0.1-0.2,5.2-9.1,13.4-8.6c0.4,0,0.8,0.1,1.2,0.2
		C32.5,22.5,35.9,25.5,39,29.6"/>
	<path class="st0" d="M50.4,39.3c-1.3-1.4-2.8-2.5-4.3-3.3c-4.4-2.3-9.1-2.8-13.8-3.1c-2.8-0.2-3.7-1.1-4.4-5h-5
		c0,0.2-0.1,0.3-0.1,0.4c0,0.2,0,0.3,0.1,0.5c0.3,1.8,1.3,2.8,2.3,3.6c2,1.4,4.2,1.8,6.4,2.1c2.4,0.3,4.8,0.5,7.1,1.1
		c2.3,0.5,4.6,1.6,6.4,3.9c1.8,2.3,2,4.8,0.3,7.3c-0.9,1.3-2,2.5-3.2,3.3c-3.8,2.5-8,3-12.1,3.4c-0.1,0-0.2,0-0.2,0V41.3
		c1.2,0.1,2.4,0.2,3.5,0.5l2.1-2.1c-0.9-0.6-3-1-5.6-1.2v-2.3l-3.5-1.4h-2.5v3.7C16.6,39,8.5,41,7.4,45.3
		C4.7,55.4,22.3,57.1,23.9,57.2l0,0h6c1.1-0.1,2.1-0.1,3.2-0.3c4.2-0.5,8.3-1.3,12.2-3.5c2.2-1.2,4.2-2.7,5.7-5.3
		C52.9,45.1,52.7,41.7,50.4,39.3 M14.5,44.2c1.9-1.6,5.5-2.6,9.4-2.9v12.2C12.8,52.4,10.7,47.5,14.5,44.2"/>
</g>
<g class="st1">
	<path class="st0" d="M79.9,44.1c0,0.6,0,1.3-0.1,1.9c-0.8,5.6-5.3,10-11,10.7H57.2V36.9h3.6V53h7.7c3.8-0.5,6.8-3.4,7.5-7.1
		c0.1-0.6,0.2-1.2,0.2-1.9c0-0.6-0.1-1.2-0.2-1.8c-0.4-2.2-1.7-4.1-3.4-5.4c-1.4-1.1-3.2-1.7-5-1.8H57.2v-3.7h10.2l0,0
		c6.3,0.1,11.5,4.8,12.4,10.9C79.9,42.9,79.9,43.5,79.9,44.1z"/>
</g>
<g class="st1">
	<path class="st0" d="M90.6,37.9l2.4,4.4l-8,14.5h-4.8L90.6,37.9z M108.3,56.7h-4.8l-9.2-16.6l-2.4-4.3l2.4-4.3l0,0l2.4,4.3
		L108.3,56.7z"/>
</g>
<g class="st1">
	<path class="st0" d="M133.7,56.7h-5.2l-10-10l-3.7,3.7v6.3h-3.6v-7.9l3.6-3.6l0,0l3-3l10.8-10.8h5.1L121.1,44L133.7,56.7z
		 M114.6,42.8l-3.5,3.5V31.5h3.6v11.1L114.6,42.8z"/>
	<path class="st0" d="M159.4,31.5v25.2h-3.6V45H141v11.7h-3.6V31.5h3.6v9.9h14.8v-9.9H159.4z"/>
	<path class="st0" d="M163,56.7V31.4h3.6v25.3H163z M163,31.4v25.3h3.6V31.4H163z M166.6,31.5h-3.4v25.1h3.4V31.5z"/>
</g>
<g class="st1">
	<path class="st0" d="M190.3,31.4v25.2l-3.6-3.6l-12.8-12.8l0,0l-3.6-3.6v-5.2l16.4,16.4V31.4H190.3z M170.3,39.1l3.6,3.6v13.9h-3.6
		V39.1z"/>
</g>
<g class="st1">
	<path class="st0" d="M203.6,37.9l2.4,4.4l-8,14.5h-4.8L203.6,37.9z M221.3,56.7h-4.8l-9.2-16.6l-2.4-4.3l2.4-4.3l0,0l2.4,4.3
		L221.3,56.7z"/>
</g>
<g>
	<g class="st1">
		<path class="st0" d="M65.4,72.2h-1.5l-2.6-4.3l-0.1-0.1l0,0c0,0,0,0-0.1,0l0,0H61c-0.1,0-0.2,0-0.2,0s0,0-0.1,0l0,0h-0.1l0,0h-0.1
			h-0.1l0,0h-0.1l0,0h-0.1l0,0h-0.1h-1.7v4.3h-1.3V63h7.6c0,0.1,0,0.2,0,0.3c0,0.3,0,0.7-0.1,1c-0.2,0.9-0.6,1.7-1.3,2.3
			c-0.1,0.1-0.1,0.1-0.2,0.2c0,0,0,0-0.1,0.1l0,0c0,0-0.1,0-0.1,0.1c0,0,0,0-0.1,0l0,0c-0.1,0-0.1,0.1-0.2,0.1c0,0,0,0-0.1,0.1l0,0
			c0,0,0,0-0.1,0l0,0l0,0l0.2,0.3L65.4,72.2z M62.2,65.8c0.4-0.4,0.7-0.8,0.8-1.3h-4.8v2.3h1.7c0.5,0,0.9-0.1,1.3-0.3
			C61.6,66.2,61.9,66,62.2,65.8z"/>
		<path class="st0" d="M74.2,63.2v1.3h-8.1v-1.3C66.1,63.2,74.2,63.2,74.2,63.2z M67.5,70.9h6.8v1.3h-8.1v-7.2h1.3v1.6h5.9v1.3h-5.9
			C67.5,67.9,67.5,70.9,67.5,70.9z"/>
		<path class="st0" d="M79.3,65.5l0.9,1.6l-2.9,5.3h-1.7L79.3,65.5z M85.7,72.2H84l-3.3-6l-1-1.6l0.9-1.6l0,0l0.9,1.6L85.7,72.2z"/>
		<path class="st0" d="M94,70.9v1.3H87v-9.1h1.3v7.9H94z"/>
		<path class="st0" d="M109.5,63.2v1.3h-8.1v-1.3C101.5,63.2,109.5,63.2,109.5,63.2z M102.9,70.9h6.8v1.3h-8.1v-7.2h1.3v1.6h5.9v1.3
			h-5.9C102.9,67.9,102.9,70.9,102.9,70.9z"/>
		<path class="st0" d="M118.2,68.3c0.2,0.4,0.3,0.8,0.3,1.3c0,0.5-0.1,0.9-0.3,1.3c-0.5,0.8-1.3,1.3-2.3,1.3H113
			c-1,0-1.8-0.5-2.3-1.3c-0.2-0.4-0.3-0.8-0.3-1.2h1.3c0,0.7,0.6,1.2,1.3,1.2h2.9c0.7,0,1.3-0.6,1.3-1.3c0-0.7-0.6-1.3-1.3-1.3H113
			c-0.7,0-1.4-0.3-1.9-0.8c-0.2-0.2-0.3-0.3-0.4-0.5c-0.2-0.4-0.3-0.8-0.3-1.3s0.1-0.9,0.3-1.3c0.5-0.8,1.3-1.3,2.3-1.3h2.8
			c0,0,0,0,0.1,0c0,0,0,0,0.1,0c0.9,0,1.8,0.5,2.2,1.3l0,0c0.2,0.4,0.3,0.8,0.3,1.2h-1.3c0-0.7-0.6-1.2-1.3-1.2H113
			c-0.7,0-1.3,0.6-1.3,1.3c0,0.7,0.5,1.2,1.2,1.3h0.1c0.1,0,0.2,0,0.2,0h2.6C116.9,67,117.7,67.5,118.2,68.3z"/>
		<path class="st0" d="M119.9,64.5v-1.3h8.2v1.3H119.9z M123.2,72.2v-7.2h1.3v7.2H123.2z"/>
		<path class="st0" d="M130.8,65.5l0.9,1.6l-2.9,5.3h-1.7L130.8,65.5z M137.2,72.2h-1.8l-3.3-6l-0.9-1.6l0.9-1.6l0,0l0.9,1.6
			L137.2,72.2z"/>
		<path class="st0" d="M135.3,64.5v-1.3h8.2v1.3H135.3z M138.7,72.2v-7.2h1.3v7.2H138.7z"/>
		<path class="st0" d="M153,63.2v1.3h-8.1v-1.3C144.9,63.2,153,63.2,153,63.2z M146.2,70.9h6.8v1.3h-8.1v-7.2h1.3v1.6h5.9v1.3h-5.9
			V70.9z"/>
		<path class="st0" d="M165.4,68L165.4,68h-3.8v4.3h-1.4v-9.1h5.1l0,0c1.3,0.1,2.3,1.1,2.3,2.4C167.6,66.8,166.6,67.9,165.4,68z
			 M166.3,65.6c0-0.6-0.5-1.1-1.1-1.1h-0.1l0,0h-3.5v2.2h3.6C165.8,66.6,166.3,66.1,166.3,65.6z"/>
		<path class="st0" d="M172.7,68.3l-0.9,1.6l-3.8-6.8h1.7L172.7,68.3z M178.1,63.1l-4.2,7.6l-0.9,1.6l0,0l-0.9-1.6l0.9-1.6l3.3-6
			H178.1z"/>
		<path class="st0" d="M179.4,64.5v-1.3h8.2v1.3H179.4z M182.8,72.2v-7.2h1.3v7.2H182.8z"/>
		<path class="st0" d="M188.9,72.2v-1.3h1.9v1.3H188.9z"/>
		<path class="st0" d="M205.2,70.9v1.3h-7.1v-9.1h1.3v7.9H205.2z"/>
		<path class="st0" d="M203.6,64.5v-1.3h8.2v1.3H203.6z M207,72.2v-7.2h1.3v7.2H207z"/>
		<path class="st0" d="M221.3,67.7c0,0.2,0,0.5,0,0.7c-0.3,2-1.9,3.6-4,3.9h-4.2v-7.2h1.3V71h2.8c1.4-0.2,2.5-1.2,2.7-2.6
			c0-0.2,0.1-0.4,0.1-0.7c0-0.2,0-0.4-0.1-0.6c-0.2-0.8-0.6-1.5-1.2-2c-0.5-0.4-1.1-0.6-1.8-0.7h-3.8v-1.3h3.7l0,0
			c2.3,0,4.2,1.7,4.5,4C221.3,67.2,221.3,67.5,221.3,67.7z"/>
	</g>
</g>
</svg>
